# The Great Editor v0.0.1
mtllib floor_1.mtl
o floor_1
v 13.808252788315935 -198.8546055684055 0
v 13.808252788315935 -198.8546055684055 -0.1
v 22.882751542122755 -223.14295661553362 0
v 22.882751542122755 -223.14295661553362 -0.1
v 35.47586607332086 -218.65341639236792 0
v 35.47586607332086 -218.65341639236792 -0.1
v 31.539466754544385 -207.6542605585086 0
v 31.539466754544385 -207.6542605585086 -0.1
v 52.97983281946432 -200.21681264090043 0
v 52.97983281946432 -200.21681264090043 -0.1
v 55.104785764461234 -199.20887700269063 0
v 55.104785764461234 -199.20887700269063 -0.1
v 66.35626333822992 -194.38683663490767 0
v 66.35626333822992 -194.38683663490767 -0.1
v 60.9075851950755 -181.69154718909584 0
v 60.9075851950755 -181.69154718909584 -0.1
v 72.99800815518371 -176.47019133943908 0
v 72.99800815518371 -176.47019133943908 -0.1
v 72.48045204838955 -173.67550848021082 0
v 72.48045204838955 -173.67550848021082 -0.1
v 72.7261673279859 -120.54665493664056 0
v 72.7261673279859 -120.54665493664056 -0.1
v 73.15010688920822 -117.11962872267962 0
v 73.15010688920822 -117.11962872267962 -0.1
v 76.01183030593097 -107.313464489207 0
v 76.01183030593097 -107.313464489207 -0.1
v 91.54677158514707 -75.1340719652525 0
v 91.54677158514707 -75.1340719652525 -0.1
v 109.00779633925598 -52.94139523218864 0
v 109.00779633925598 -52.94139523218864 -0.1
v 110.26399975309215 -51.68519181835244 0
v 110.26399975309215 -51.68519181835244 -0.1
v 133.32527587049145 -32.039380609366304 0
v 133.32527587049145 -32.039380609366304 -0.1
v 141.81397678540722 -25.599658345847832 0
v 141.81397678540722 -25.599658345847832 -0.1
v 134.62622303826575 -17.208552867374237 0
v 134.62622303826575 -17.208552867374237 -0.1
v 127.92637139992254 -22.802648210827517 0
v 127.92637139992254 -22.802648210827517 -0.1
v 124.12112533304182 -17.989091138673757 0
v 124.12112533304182 -17.989091138673757 -0.1
v 130.20304771188074 -13.630929387641753 0
v 130.20304771188074 -13.630929387641753 -0.1
v 128.77199831998772 -10.476119367941862 0
v 128.77199831998772 -10.476119367941862 -0.1
v 123.66573001192006 -12.394995795220476 0
v 123.66573001192006 -12.394995795220476 -0.1
v 120.51091999222018 -8.654763303692787 0
v 120.51091999222018 -8.654763303692787 -0.1
v 115.69743799347907 -12.622693455781356 0
v 115.69743799347907 -12.622693455781356 -0.1
v 113.97367736567217 -10.63872837973707 0
v 113.97367736567217 -10.63872837973707 -0.1
v 118.46194134082289 -6.931002675885891 0
v 118.46194134082289 -6.931002675885891 -0.1
v 115.53482898168387 -3.255858833123872 0
v 115.53482898168387 -3.255858833123872 -0.1
v 108.93249770637019 -8.81744738890064 0
v 108.93249770637019 -8.81744738890064 -0.1
v 66.38351498702109 -51.979254375694005 0
v 66.38351498702109 -51.979254375694005 -0.1
v 64.94961280544747 -53.551967297253455 0
v 64.94961280544747 -53.551967297253455 -0.1
v 37.56373275246975 -113.9346391910953 0
v 37.56373275246975 -113.9346391910953 -0.1
v 36.9244075703608 -174.67278369382464 0
v 36.9244075703608 -174.67278369382464 -0.1
v 38.27910730159095 -182.97034770013903 0
v 38.27910730159095 -182.97034770013903 -0.1
v 37.6589258397072 -190.1561495385517 0
v 37.6589258397072 -190.1561495385517 -0.1
v 26.505193849205998 -194.15463456958793 0
v 26.505193849205998 -194.15463456958793 -0.1
v 19.94633007981541 -196.8554005895937 0
v 19.94633007981541 -196.8554005895937 -0.1
vt 13.808252788315935 -198.8546055684055 0
vt 22.882751542122755 -223.14295661553362 0
vt 35.47586607332086 -218.65341639236792 0
vt 31.539466754544385 -207.6542605585086 0
vt 52.97983281946432 -200.21681264090043 0
vt 55.104785764461234 -199.20887700269063 0
vt 66.35626333822992 -194.38683663490767 0
vt 60.9075851950755 -181.69154718909584 0
vt 72.99800815518371 -176.47019133943908 0
vt 72.48045204838955 -173.67550848021082 0
vt 72.7261673279859 -120.54665493664056 0
vt 73.15010688920822 -117.11962872267962 0
vt 76.01183030593097 -107.313464489207 0
vt 91.54677158514707 -75.1340719652525 0
vt 109.00779633925598 -52.94139523218864 0
vt 110.26399975309215 -51.68519181835244 0
vt 133.32527587049145 -32.039380609366304 0
vt 141.81397678540722 -25.599658345847832 0
vt 134.62622303826575 -17.208552867374237 0
vt 127.92637139992254 -22.802648210827517 0
vt 124.12112533304182 -17.989091138673757 0
vt 130.20304771188074 -13.630929387641753 0
vt 128.77199831998772 -10.476119367941862 0
vt 123.66573001192006 -12.394995795220476 0
vt 120.51091999222018 -8.654763303692787 0
vt 115.69743799347907 -12.622693455781356 0
vt 113.97367736567217 -10.63872837973707 0
vt 118.46194134082289 -6.931002675885891 0
vt 115.53482898168387 -3.255858833123872 0
vt 108.93249770637019 -8.81744738890064 0
vt 66.38351498702109 -51.979254375694005 0
vt 64.94961280544747 -53.551967297253455 0
vt 37.56373275246975 -113.9346391910953 0
vt 36.9244075703608 -174.67278369382464 0
vt 38.27910730159095 -182.97034770013903 0
vt 37.6589258397072 -190.1561495385517 0
vt 26.505193849205998 -194.15463456958793 0
vt 19.94633007981541 -196.8554005895937 0
vn 0 0 1
vn 0 0 -1
usemtl floor_1
s off
f 65/33/1 67/34/1 21/11/1
f 22/11/2 68/34/2 66/33/2
f 65/33/1 21/11/1 23/12/1
f 24/12/2 22/11/2 66/33/2
f 65/33/1 23/12/1 25/13/1
f 26/13/2 24/12/2 66/33/2
f 65/33/1 25/13/1 63/32/1
f 64/32/2 26/13/2 66/33/2
f 63/32/1 25/13/1 27/14/1
f 28/14/2 26/13/2 64/32/2
f 63/32/1 27/14/1 61/31/1
f 62/31/2 28/14/2 64/32/2
f 61/31/1 27/14/1 29/15/1
f 30/15/2 28/14/2 62/31/2
f 61/31/1 29/15/1 59/30/1
f 60/30/2 30/15/2 62/31/2
f 59/30/1 29/15/1 31/16/1
f 32/16/2 30/15/2 60/30/2
f 59/30/1 31/16/1 51/26/1
f 52/26/2 32/16/2 60/30/2
f 59/30/1 51/26/1 53/27/1
f 54/27/2 52/26/2 60/30/2
f 59/30/1 53/27/1 57/29/1
f 58/29/2 54/27/2 60/30/2
f 57/29/1 53/27/1 55/28/1
f 56/28/2 54/27/2 58/29/2
f 45/23/1 47/24/1 43/22/1
f 44/22/2 48/24/2 46/23/2
f 37/19/1 39/20/1 35/18/1
f 36/18/2 40/20/2 38/19/2
f 35/18/1 39/20/1 33/17/1
f 34/17/2 40/20/2 36/18/2
f 3/2/1 5/3/1 7/4/1
f 8/4/2 6/3/2 4/2/2
f 3/2/1 7/4/1 1/1/1
f 2/1/2 8/4/2 4/2/2
f 1/1/1 7/4/1 75/38/1
f 76/38/2 8/4/2 2/1/2
f 67/34/1 69/35/1 15/8/1
f 16/8/2 70/35/2 68/34/2
f 67/34/1 15/8/1 19/10/1
f 20/10/2 16/8/2 68/34/2
f 67/34/1 19/10/1 21/11/1
f 22/11/2 20/10/2 68/34/2
f 31/16/1 33/17/1 39/20/1
f 40/20/2 34/17/2 32/16/2
f 31/16/1 39/20/1 41/21/1
f 42/21/2 40/20/2 32/16/2
f 31/16/1 41/21/1 51/26/1
f 52/26/2 42/21/2 32/16/2
f 51/26/1 41/21/1 47/24/1
f 48/24/2 42/21/2 52/26/2
f 51/26/1 47/24/1 49/25/1
f 50/25/2 48/24/2 52/26/2
f 47/24/1 41/21/1 43/22/1
f 44/22/2 42/21/2 48/24/2
f 17/9/1 19/10/1 15/8/1
f 16/8/2 20/10/2 18/9/2
f 13/7/1 15/8/1 11/6/1
f 12/6/2 16/8/2 14/7/2
f 7/4/1 9/5/1 71/36/1
f 72/36/2 10/5/2 8/4/2
f 7/4/1 71/36/1 73/37/1
f 74/37/2 72/36/2 8/4/2
f 7/4/1 73/37/1 75/38/1
f 76/38/2 74/37/2 8/4/2
f 69/35/1 71/36/1 15/8/1
f 16/8/2 72/36/2 70/35/2
f 15/8/1 71/36/1 11/6/1
f 12/6/2 72/36/2 16/8/2
f 11/6/1 71/36/1 9/5/1
f 10/5/2 72/36/2 12/6/2
