# The Great Editor v0.0.1
mtllib floor_1.mtl
o floor_1
v 77.5346780878091 -188.76338016316708 0
v 77.5346780878091 -188.76338016316708 -0.1
v 22.832933402628985 -210.90753932766623 0
v 22.832933402628985 -210.90753932766623 -0.1
v 12.54502900248425 -188.01060320918342 0
v 12.54502900248425 -188.01060320918342 -0.1
v 35.63014162035104 -178.8518287617903 0
v 35.63014162035104 -178.8518287617903 -0.1
v 31.991707850022106 -159.3424244144578 0
v 31.991707850022106 -159.3424244144578 -0.1
v 32.80721030380042 -112.23124572535657 0
v 32.80721030380042 -112.23124572535657 -0.1
v 34.98450890244197 -112.30475660520644 0
v 34.98450890244197 -112.30475660520644 -0.1
v 38.2016742425889 -93.24457752846213 0
v 38.2016742425889 -93.24457752846213 -0.1
v 61.450341472476836 -50.617065815067676 0
v 61.450341472476836 -50.617065815067676 -0.1
v 69.00762889456965 -41.0110528776228 0
v 69.00762889456965 -41.0110528776228 -0.1
v 102.37816243691056 -8.403088279052481 0
v 102.37816243691056 -8.403088279052481 -0.1
v 108.96802965063189 -3.1789907712673675 0
v 108.96802965063189 -3.1789907712673675 -0.1
v 111.97275138627066 -6.79826630070879 0
v 111.97275138627066 -6.79826630070879 -0.1
v 107.3974086800948 -10.315151676073635 0
v 107.3974086800948 -10.315151676073635 -0.1
v 109.13875086387392 -12.090694867659353 0
v 109.13875086387392 -12.090694867659353 -0.1
v 113.95314584245727 -8.164106963092737 0
v 113.95314584245727 -8.164106963092737 -0.1
v 117.0944587399792 -11.612661279292132 0
v 117.0944587399792 -11.612661279292132 -0.1
v 121.73806154887278 -9.939579198230724 0
v 121.73806154887278 -9.939579198230724 -0.1
v 122.89897999020812 -13.012561036587206 0
v 122.89897999020812 -13.012561036587206 -0.1
v 117.57249232834643 -17.07581105948472 0
v 117.57249232834643 -17.07581105948472 -0.1
v 121.36248907102988 -21.17312017729337 0
v 121.36248907102988 -21.17312017729337 -0.1
v 127.16708127770652 -16.15387393410914 0
v 127.16708127770652 -16.15387393410914 -0.1
v 134.2008520284362 -24.621745449940494 0
v 134.2008520284362 -24.621745449940494 -0.1
v 104.53722522848513 -48.80072266603633 0
v 104.53722522848513 -48.80072266603633 -0.1
v 102.85903428318704 -50.146837435950914 0
v 102.85903428318704 -50.146837435950914 -0.1
v 86.87219182703791 -71.23651283071202 0
v 86.87219182703791 -71.23651283071202 -0.1
v 68.48978873902504 -113.11841419134372 0
v 68.48978873902504 -113.11841419134372 -0.1
v 68.46743745798962 -113.96556322081028 0
v 68.46743745798962 -113.96556322081028 -0.1
v 68.54605720207614 -163.68183693192637 0
v 68.54605720207614 -163.68183693192637 -0.1
vt 77.5346780878091 -188.76338016316708 0
vt 22.832933402628985 -210.90753932766623 0
vt 12.54502900248425 -188.01060320918342 0
vt 35.63014162035104 -178.8518287617903 0
vt 31.991707850022106 -159.3424244144578 0
vt 32.80721030380042 -112.23124572535657 0
vt 34.98450890244197 -112.30475660520644 0
vt 38.2016742425889 -93.24457752846213 0
vt 61.450341472476836 -50.617065815067676 0
vt 69.00762889456965 -41.0110528776228 0
vt 102.37816243691056 -8.403088279052481 0
vt 108.96802965063189 -3.1789907712673675 0
vt 111.97275138627066 -6.79826630070879 0
vt 107.3974086800948 -10.315151676073635 0
vt 109.13875086387392 -12.090694867659353 0
vt 113.95314584245727 -8.164106963092737 0
vt 117.0944587399792 -11.612661279292132 0
vt 121.73806154887278 -9.939579198230724 0
vt 122.89897999020812 -13.012561036587206 0
vt 117.57249232834643 -17.07581105948472 0
vt 121.36248907102988 -21.17312017729337 0
vt 127.16708127770652 -16.15387393410914 0
vt 134.2008520284362 -24.621745449940494 0
vt 104.53722522848513 -48.80072266603633 0
vt 102.85903428318704 -50.146837435950914 0
vt 86.87219182703791 -71.23651283071202 0
vt 68.48978873902504 -113.11841419134372 0
vt 68.46743745798962 -113.96556322081028 0
vt 68.54605720207614 -163.68183693192637 0
vn 0 0 1
vn 0 0 -1
usemtl floor_1
s off
f 19/10/1 17/9/1 51/26/1
f 52/26/2 18/9/2 20/10/2
f 19/10/1 51/26/1 49/25/1
f 50/25/2 52/26/2 20/10/2
f 19/10/1 49/25/1 47/24/1
f 48/24/2 50/25/2 20/10/2
f 19/10/1 47/24/1 21/11/1
f 22/11/2 48/24/2 20/10/2
f 21/11/1 47/24/1 29/15/1
f 30/15/2 48/24/2 22/11/2
f 21/11/1 29/15/1 27/14/1
f 28/14/2 30/15/2 22/11/2
f 21/11/1 27/14/1 23/12/1
f 24/12/2 28/14/2 22/11/2
f 23/12/1 27/14/1 25/13/1
f 26/13/2 28/14/2 24/12/2
f 35/18/1 33/17/1 37/19/1
f 38/19/2 34/17/2 36/18/2
f 43/22/1 41/21/1 45/23/1
f 46/23/2 42/21/2 44/22/2
f 45/23/1 41/21/1 47/24/1
f 48/24/2 42/21/2 46/23/2
f 1/1/1 57/29/1 7/4/1
f 8/4/2 58/29/2 2/1/2
f 1/1/1 7/4/1 3/2/1
f 4/2/2 8/4/2 2/1/2
f 3/2/1 7/4/1 5/3/1
f 6/3/2 8/4/2 4/2/2
f 11/6/1 9/5/1 13/7/1
f 14/7/2 10/5/2 12/6/2
f 15/8/1 13/7/1 53/27/1
f 54/27/2 14/7/2 16/8/2
f 15/8/1 53/27/1 51/26/1
f 52/26/2 54/27/2 16/8/2
f 15/8/1 51/26/1 17/9/1
f 18/9/2 52/26/2 16/8/2
f 55/28/1 53/27/1 13/7/1
f 14/7/2 54/27/2 56/28/2
f 55/28/1 13/7/1 9/5/1
f 10/5/2 14/7/2 56/28/2
f 55/28/1 9/5/1 57/29/1
f 58/29/2 10/5/2 56/28/2
f 57/29/1 9/5/1 7/4/1
f 8/4/2 10/5/2 58/29/2
f 47/24/1 41/21/1 39/20/1
f 40/20/2 42/21/2 48/24/2
f 47/24/1 39/20/1 29/15/1
f 30/15/2 40/20/2 48/24/2
f 29/15/1 39/20/1 33/17/1
f 34/17/2 40/20/2 30/15/2
f 29/15/1 33/17/1 31/16/1
f 32/16/2 34/17/2 30/15/2
f 33/17/1 39/20/1 37/19/1
f 38/19/2 40/20/2 34/17/2
