# The Great Editor v0.0.1
mtllib floor_1.mtl
o floor_1
v 86.87219182703791 -71.23651283071202 0
v 86.87219182703791 -71.23651283071202 -0.1
v 79.08677942548827 -67.31396944366611 0
v 79.08677942548827 -67.31396944366611 -0.1
v 80.49491013072019 -65.32314438966297 0
v 80.49491013072019 -65.32314438966297 -0.1
v 78.45235782632079 -64.36267791316916 0
v 78.45235782632079 -64.36267791316916 -0.1
v 77.1803215878379 -66.37003581949375 0
v 77.1803215878379 -66.37003581949375 -0.1
v 70.07609108451081 -62.8844422375785 0
v 70.07609108451081 -62.8844422375785 -0.1
v 57.807721271731744 -96.46507782165244 0
v 57.807721271731744 -96.46507782165244 -0.1
v 55.72543335660268 -104.55240990829967 0
v 55.72543335660268 -104.55240990829967 -0.1
v 60.2313097004494 -105.52948019356265 0
v 60.2313097004494 -105.52948019356265 -0.1
v 59.68920243978061 -108.61502132316761 0
v 59.68920243978061 -108.61502132316761 -0.1
v 56.21162693645903 -107.91304918575973 0
v 56.21162693645903 -107.91304918575973 -0.1
v 55.50319776230758 -110.60520776914116 0
v 55.50319776230758 -110.60520776914116 -0.1
v 53.465541452801645 -113.37151584040203 0
v 53.465541452801645 -113.37151584040203 -0.1
v 58.13461762643083 -113.42551369712571 0
v 58.13461762643083 -113.42551369712571 -0.1
v 58.09644305755128 -114.4318889953018 0
v 58.09644305755128 -114.4318889953018 -0.1
v 60.45013938525339 -114.68768698937392 0
v 60.45013938525339 -114.68768698937392 -0.1
v 60.58311176830225 -113.72189877930026 0
v 60.58311176830225 -113.72189877930026 -0.1
v 68.46743745798962 -113.96556322081028 0
v 68.46743745798962 -113.96556322081028 -0.1
v 68.48978873902504 -113.11841419134372 0
v 68.48978873902504 -113.11841419134372 -0.1
vt 86.87219182703791 -71.23651283071202 0
vt 79.08677942548827 -67.31396944366611 0
vt 80.49491013072019 -65.32314438966297 0
vt 78.45235782632079 -64.36267791316916 0
vt 77.1803215878379 -66.37003581949375 0
vt 70.07609108451081 -62.8844422375785 0
vt 57.807721271731744 -96.46507782165244 0
vt 55.72543335660268 -104.55240990829967 0
vt 60.2313097004494 -105.52948019356265 0
vt 59.68920243978061 -108.61502132316761 0
vt 56.21162693645903 -107.91304918575973 0
vt 55.50319776230758 -110.60520776914116 0
vt 53.465541452801645 -113.37151584040203 0
vt 58.13461762643083 -113.42551369712571 0
vt 58.09644305755128 -114.4318889953018 0
vt 60.45013938525339 -114.68768698937392 0
vt 60.58311176830225 -113.72189877930026 0
vt 68.46743745798962 -113.96556322081028 0
vt 68.48978873902504 -113.11841419134372 0
vn 0 0 1
vn 0 0 -1
usemtl floor_1
s off
f 11/6/1 13/7/1 9/5/1
f 10/5/2 14/7/2 12/6/2
f 7/4/1 9/5/1 3/2/1
f 4/2/2 10/5/2 8/4/2
f 7/4/1 3/2/1 5/3/1
f 6/3/2 4/2/2 8/4/2
f 1/1/1 3/2/1 13/7/1
f 14/7/2 4/2/2 2/1/2
f 1/1/1 13/7/1 37/19/1
f 38/19/2 14/7/2 2/1/2
f 35/18/1 37/19/1 33/17/1
f 34/17/2 38/19/2 36/18/2
f 31/16/1 33/17/1 29/15/1
f 30/15/2 34/17/2 32/16/2
f 29/15/1 33/17/1 27/14/1
f 28/14/2 34/17/2 30/15/2
f 25/13/1 27/14/1 23/12/1
f 24/12/2 28/14/2 26/13/2
f 15/8/1 17/9/1 13/7/1
f 14/7/2 18/9/2 16/8/2
f 13/7/1 17/9/1 37/19/1
f 38/19/2 18/9/2 14/7/2
f 37/19/1 17/9/1 19/10/1
f 20/10/2 18/9/2 38/19/2
f 37/19/1 19/10/1 33/17/1
f 34/17/2 20/10/2 38/19/2
f 33/17/1 19/10/1 27/14/1
f 28/14/2 20/10/2 34/17/2
f 27/14/1 19/10/1 23/12/1
f 24/12/2 20/10/2 28/14/2
f 23/12/1 19/10/1 21/11/1
f 22/11/2 20/10/2 24/12/2
f 13/7/1 3/2/1 9/5/1
f 10/5/2 4/2/2 14/7/2
