# The Great Editor v0.0.1
mtllib floor_1.mtl
o floor_1
v 37.43108722022465 -91.20308957077869 0
v 37.43108722022465 -91.20308957077869 -0.1
v 32.64159795479506 -134.59827909218043 0
v 32.64159795479506 -134.59827909218043 -0.1
v 36.50780192234215 -179.32496635526405 0
v 36.50780192234215 -179.32496635526405 -0.1
v 12.613076235858774 -187.71734021070907 0
v 12.613076235858774 -187.71734021070907 -0.1
v 21.756595046989624 -211.5193967764551 0
v 21.756595046989624 -211.5193967764551 -0.1
v 78.21380224904743 -186.26599702880864 0
v 78.21380224904743 -186.26599702880864 -0.1
v 69.50574315764489 -167.9791013194424 0
v 69.50574315764489 -167.9791013194424 -0.1
v 68.48978873902504 -113.11841419134372 0
v 68.48978873902504 -113.11841419134372 -0.1
v 87.64753293140018 -69.57811873433104 0
v 87.64753293140018 -69.57811873433104 -0.1
v 103.12710774271672 -50.30045814528965 0
v 103.12710774271672 -50.30045814528965 -0.1
v 104.48308545886599 -48.82392542444453 0
v 104.48308545886599 -48.82392542444453 -0.1
v 134.81611538671618 -23.71570256885677 0
v 134.81611538671618 -23.71570256885677 -0.1
v 112.61057889492926 -0.2039288307803762 0
v 112.61057889492926 -0.2039288307803762 -0.1
v 102.30607068601536 -8.041210395621752 0
v 102.30607068601536 -8.041210395621752 -0.1
v 68.634894674636 -39.390194742091786 0
v 68.634894674636 -39.390194742091786 -0.1
vt 37.43108722022465 -91.20308957077869 0
vt 32.64159795479506 -134.59827909218043 0
vt 36.50780192234215 -179.32496635526405 0
vt 12.613076235858774 -187.71734021070907 0
vt 21.756595046989624 -211.5193967764551 0
vt 78.21380224904743 -186.26599702880864 0
vt 69.50574315764489 -167.9791013194424 0
vt 68.48978873902504 -113.11841419134372 0
vt 87.64753293140018 -69.57811873433104 0
vt 103.12710774271672 -50.30045814528965 0
vt 104.48308545886599 -48.82392542444453 0
vt 134.81611538671618 -23.71570256885677 0
vt 112.61057889492926 -0.2039288307803762 0
vt 102.30607068601536 -8.041210395621752 0
vt 68.634894674636 -39.390194742091786 0
vn 0 0 1
vn 0 0 -1
usemtl floor_1
s off
f 29/15/1 1/1/1 17/9/1
f 18/9/2 2/1/2 30/15/2
f 29/15/1 17/9/1 19/10/1
f 20/10/2 18/9/2 30/15/2
f 29/15/1 19/10/1 21/11/1
f 22/11/2 20/10/2 30/15/2
f 29/15/1 21/11/1 27/14/1
f 28/14/2 22/11/2 30/15/2
f 27/14/1 21/11/1 23/12/1
f 24/12/2 22/11/2 28/14/2
f 27/14/1 23/12/1 25/13/1
f 26/13/2 24/12/2 28/14/2
f 11/6/1 13/7/1 5/3/1
f 6/3/2 14/7/2 12/6/2
f 11/6/1 5/3/1 9/5/1
f 10/5/2 6/3/2 12/6/2
f 9/5/1 5/3/1 7/4/1
f 8/4/2 6/3/2 10/5/2
f 1/1/1 3/2/1 15/8/1
f 16/8/2 4/2/2 2/1/2
f 1/1/1 15/8/1 17/9/1
f 18/9/2 16/8/2 2/1/2
f 15/8/1 3/2/1 13/7/1
f 14/7/2 4/2/2 16/8/2
f 13/7/1 3/2/1 5/3/1
f 6/3/2 4/2/2 14/7/2
